<?xml version="1.0" standalone="no"?>
<!DOCTYPE svg PUBLIC "-//W3C//DTD SVG 20010904//EN"
 "http://www.w3.org/TR/2001/REC-SVG-20010904/DTD/svg10.dtd">
<svg version="1.0" xmlns="http://www.w3.org/2000/svg"
 width="1080.000000pt" height="1080.000000pt" viewBox="0 0 1080.000000 1080.000000"
 preserveAspectRatio="xMidYMid meet">
<metadata>
Created by potrace 1.14, written by Peter Selinger 2001-2017
</metadata>
<g transform="translate(0.000000,1080.000000) scale(0.100000,-0.100000)"
fill="#000000" stroke="none">
<path d="M6470 9089 c-41 -4 -88 -10 -105 -12 -16 -3 -50 -8 -75 -12 -25 -4
-76 -13 -115 -22 -38 -8 -79 -16 -90 -19 -131 -26 -402 -130 -556 -214 -99
-54 -117 -65 -204 -123 -266 -176 -545 -452 -739 -731 -274 -393 -459 -866
-552 -1416 -26 -153 -34 -206 -38 -255 -2 -16 -7 -64 -11 -105 -22 -212 -29
-409 -28 -805 0 -325 6 -516 18 -645 2 -25 7 -74 10 -110 63 -714 293 -1368
650 -1845 46 -61 90 -117 99 -124 9 -8 16 -19 16 -26 0 -30 -308 -131 -460
-151 -25 -3 -56 -8 -70 -11 -57 -12 -438 -11 -534 2 -385 52 -692 196 -941
441 -200 197 -345 479 -405 789 -7 33 -16 80 -21 105 -13 67 -29 223 -34 325
-2 50 -4 1157 -4 2460 l-1 2370 -382 0 -383 0 0 -2435 c0 -2154 3 -2580 19
-2680 3 -14 12 -74 21 -135 54 -376 177 -718 358 -994 215 -328 563 -615 963
-794 238 -106 522 -180 789 -204 158 -15 582 -8 685 11 14 3 41 7 60 10 19 3
45 8 56 10 12 2 39 7 60 10 22 4 47 9 56 12 9 3 25 7 35 9 71 16 250 71 308
95 185 78 271 121 384 190 l51 32 27 -20 c65 -45 332 -182 355 -182 8 0 18 -4
23 -9 31 -28 381 -125 530 -147 22 -3 54 -8 70 -11 117 -20 605 -26 730 -8 22
3 75 10 117 16 42 5 85 11 95 13 10 2 38 7 63 11 25 4 81 16 125 27 401 97
725 271 986 528 319 314 554 711 685 1155 23 78 19 60 53 220 30 145 38 189
47 265 3 25 9 74 14 110 5 36 10 71 10 78 0 10 -80 12 -382 10 l-382 -3 -2
-25 c-3 -44 -15 -144 -20 -170 -3 -14 -7 -37 -9 -53 -2 -15 -6 -31 -9 -35 -2
-4 -7 -28 -11 -52 -9 -58 -78 -269 -111 -340 -186 -391 -382 -635 -637 -789
-130 -79 -334 -156 -495 -186 -13 -2 -31 -7 -40 -9 -20 -6 -62 -12 -157 -21
-38 -4 -78 -9 -90 -11 -26 -5 -341 -6 -380 0 -16 2 -57 7 -90 11 -85 10 -268
51 -330 75 -33 12 -200 82 -203 85 -1 1 11 19 26 41 16 21 55 84 87 139 167
284 278 642 320 1035 3 30 8 71 12 90 3 19 8 1012 10 2205 2 1194 5 2175 7
2181 3 6 30 15 62 19 32 4 67 9 79 11 26 5 371 5 410 0 17 -3 59 -7 95 -11 75
-8 78 -8 185 -30 94 -19 245 -66 313 -96 26 -12 67 -31 92 -42 61 -28 214
-131 269 -181 259 -238 470 -606 560 -973 25 -103 51 -256 55 -333 l2 -25 383
-3 383 -2 -6 37 c-6 42 -12 91 -21 173 -5 48 -14 101 -31 190 -53 271 -131
507 -244 730 -87 174 -89 177 -153 274 -140 213 -316 414 -477 548 -252 209
-651 388 -990 443 -19 3 -60 10 -90 15 -56 10 -95 15 -230 29 -95 10 -481 10
-580 0z m-836 -3031 c-1 -1685 -3 -1979 -19 -2103 -2 -16 -7 -52 -10 -79 -18
-149 -70 -354 -125 -491 -35 -89 -100 -218 -112 -223 -5 -2 -8 -10 -8 -17 0
-25 -28 -24 -47 2 -10 14 -34 46 -54 72 -58 73 -162 247 -217 361 -96 199
-195 495 -227 679 -3 19 -8 37 -10 41 -2 3 -7 29 -11 56 -3 27 -8 52 -10 55
-2 3 -6 34 -10 70 -3 35 -8 67 -10 70 -1 3 -6 37 -9 75 -4 38 -8 80 -11 94
-24 140 -25 1275 0 1351 2 8 7 46 10 84 10 116 46 338 73 440 8 33 16 67 18
75 19 96 86 296 147 439 107 255 266 497 451 690 80 83 178 171 186 167 3 -2
6 -861 5 -1908z"/>
</g>
</svg>
